# xmcd
#
# Track frame offsets: 
#        150
#        26935
#        61789
#        89061
#        112033
#        134357
#        162072
#        187438
#        218535
#        244428
#        284190
#        307593
#        326302
#        343839
#
# Disc length: 4948 seconds
#
# Revision: 0
# Processed by: cddbd v1.5.2PL0 Copyright (c) Steve Scherf et al.
# Submitted via: ExactAudioCopy v0.99pb5
#
DISCID=d913520e
DTITLE=Bob Dylan - Modern Times
DYEAR=2006
DGENRE=Blues
TTITLE0=Thunder On The Mountain
TTITLE1=Spirit On The Water
TTITLE2=Rollin' And Tumblin'
TTITLE3=When The Deal Goes Down
TTITLE4=Someday Baby
TTITLE5=Workingman's Blues #2
TTITLE6=Beyond The Horizon
TTITLE7=Nettie Moore
TTITLE8=The Levee's Gonna Break
TTITLE9=Ain't Talkin'
TTITLE10=Blood In My Eyes
TTITLE11=Love Sick
TTITLE12=Things Have Changed
TTITLE13=Cold Irons Bound
EXTD=
EXTT0=
EXTT1=
EXTT2=
EXTT3=
EXTT4=
EXTT5=
EXTT6=
EXTT7=
EXTT8=
EXTT9=
EXTT10=
EXTT11=
EXTT12=
EXTT13=
PLAYORDER=
